<svg width="647" height="119" viewBox="0 0 647 119" fill="none" xmlns="http://www.w3.org/2000/svg">
<path d="M11.5816 31.3402C27.0237 15.7907 52.1201 15.6215 67.7732 30.9575C68.3051 31.4735 68.7299 32.0896 69.0231 32.7704C69.3162 33.4511 69.472 34.183 69.4814 34.9242C69.4908 35.6653 69.3537 36.4009 69.078 37.0889C68.8022 37.7769 68.3932 38.4036 67.8745 38.933C67.3558 39.4624 66.7377 39.8841 66.0555 40.1739C65.3733 40.4637 64.6406 40.6159 63.8995 40.6216C63.1583 40.6274 62.4233 40.4866 61.7367 40.2075C61.0502 39.9283 60.4255 39.5162 59.8986 38.9949C48.6628 27.9865 30.6489 28.1091 19.5635 39.2691C8.47926 50.4303 8.47926 68.4442 19.5635 79.6042C30.6489 90.7655 48.6628 90.888 59.8986 79.8796C60.9689 78.859 62.398 78.3008 63.8767 78.3259C65.3553 78.351 66.7647 78.9573 67.7997 80.0136C68.8348 81.0699 69.4123 82.4913 69.4073 83.9701C69.4024 85.449 68.8153 86.8665 67.7732 87.9158C52.1201 103.253 27.0237 103.084 11.5816 87.5343C-3.86053 71.9848 -3.86053 46.8884 11.5816 31.3402ZM151.531 0.0088421L151.702 0H152.059L152.381 0.0189474L152.736 0.0606316L152.887 0.0858947L153.153 0.138947L153.437 0.213474C153.713 0.290526 153.98 0.390316 154.238 0.507789L154.515 0.645474L154.779 0.793263L155.004 0.936L208.793 36.6291C209.117 36.84 209.42 37.0863 209.699 37.368L209.844 37.5196L209.954 37.6434L210.115 37.8366L210.348 38.1524L210.475 38.3469L210.63 38.6097L210.754 38.8472L210.869 39.096C211.056 39.5204 211.185 39.9587 211.258 40.4034L211.265 40.4539C211.307 40.7166 211.33 40.9794 211.334 41.2434V77.5592C211.333 78.2289 211.211 78.8929 210.975 79.5196L210.95 79.5789C210.889 79.737 210.82 79.8922 210.745 80.0438L210.595 80.3242L210.376 80.6779L210.267 80.8333L210.07 81.0897L209.89 81.3006L209.709 81.4926C209.42 81.7869 209.103 82.0446 208.762 82.2632L155.04 117.915C154.494 118.283 153.878 118.559 153.218 118.719L152.87 118.79L152.544 118.838L152.119 118.871L151.894 118.876C151.783 118.876 151.673 118.872 151.565 118.866L151.154 118.828L150.902 118.787C150.344 118.689 149.804 118.506 149.301 118.244L149.268 118.225C149.074 118.123 148.886 118.009 148.706 117.884L94.9399 82.2076C94.7899 82.1079 94.6453 82.0004 94.5066 81.8855L94.2742 81.6834L94.0494 81.4636L93.7576 81.1389L93.5934 80.9318L93.4127 80.6792C93.346 80.5797 93.2824 80.4782 93.222 80.3747L93.054 80.0653L92.9214 79.7836C92.6128 79.0786 92.4537 78.3173 92.454 77.5478V41.3103C92.4565 40.6661 92.5702 40.0181 92.7988 39.3954L92.9479 39.0328L92.9908 38.9394L93.126 38.6716L93.2612 38.4354L93.4127 38.1954L93.5264 38.0349L93.7033 37.8025L93.8927 37.5802L94.086 37.3743L94.2881 37.181C94.5204 36.9676 94.7706 36.7745 95.0359 36.6038L148.735 0.967579L148.994 0.800842L149.295 0.634105L149.57 0.500211L149.832 0.389053C150.238 0.227966 150.662 0.115604 151.095 0.0543158L151.532 0.0088421H151.531ZM124.987 66.2173L108.208 77.5048L146.267 102.76V80.5326L124.988 66.2173H124.987ZM178.8 66.216L157.519 80.5326V102.76L195.578 77.5036L178.8 66.216ZM151.894 48.1162L135.069 59.4354L151.894 70.7533L168.72 59.4341L151.894 48.1162ZM103.701 51.8968V66.9752L114.908 59.4354L103.701 51.8968ZM200.076 51.9032L188.88 59.4354L200.076 66.9688V51.9032ZM146.267 16.1053L108.206 41.3659L124.988 52.6547L146.267 38.3394V16.1053ZM157.519 16.1103V38.3394L178.798 52.6547L195.581 41.3659L157.519 16.1103ZM269.306 19.5663H244.845C243.353 19.5663 241.922 20.1591 240.867 21.2142C239.812 22.2693 239.219 23.7003 239.219 25.1924V93.6821C239.219 95.1742 239.812 96.6053 240.867 97.6604C241.922 98.7155 243.353 99.3082 244.845 99.3082H269.306C291.327 99.3082 309.177 81.4573 309.177 59.4366C309.177 37.4173 291.327 19.5663 269.306 19.5663ZM250.466 88.056V30.8185H269.306C285.112 30.8185 297.926 43.6307 297.926 59.4366C297.926 75.2425 285.112 88.056 269.306 88.056H250.466ZM381.826 19.5663C383.264 19.5678 384.647 20.1199 385.69 21.1092C386.734 22.0984 387.359 23.4498 387.438 24.8856C387.516 26.3215 387.042 27.7329 386.112 28.8299C385.182 29.9269 383.868 30.6263 382.438 30.7844L381.826 30.8185H343.417V53.8105H367.149C368.589 53.8091 369.975 54.3599 371.021 55.3494C372.067 56.339 372.694 57.692 372.773 59.1299C372.851 60.5677 372.375 61.981 371.443 63.0786C370.511 64.1762 369.193 64.8745 367.762 65.0299L367.149 65.0627H343.416L343.417 88.056H381.826C383.212 88.0561 384.549 88.5678 385.581 89.493C386.613 90.4181 387.268 91.6917 387.419 93.0695L387.452 93.6821C387.452 95.0682 386.94 96.4055 386.015 97.4376C385.09 98.4698 383.816 99.1242 382.438 99.2754L381.826 99.3082H337.796C336.41 99.3081 335.073 98.7964 334.04 97.8712C333.008 96.9461 332.354 95.6726 332.203 94.2947L332.17 93.6821V25.1924C332.17 23.8063 332.682 22.4691 333.607 21.4369C334.532 20.4048 335.805 19.7504 337.183 19.5992L337.796 19.5663H381.826ZM450.315 19.5663C464.23 19.5663 475.51 30.8463 475.51 44.76C475.51 58.3187 464.801 69.3752 451.38 69.9335L450.315 69.9549H426.583L426.588 93.6821C426.588 95.068 426.077 96.4051 425.152 97.4372C424.227 98.4693 422.954 99.1239 421.576 99.2754L420.962 99.3082C419.576 99.3078 418.239 98.796 417.207 97.8708C416.176 96.9457 415.521 95.6723 415.37 94.2947L415.336 93.6821V25.1924C415.336 23.8061 415.848 22.4687 416.773 21.4365C417.699 20.4043 418.973 19.7501 420.351 19.5992L420.962 19.5663H450.315ZM426.583 58.7027H450.315C458.016 58.7027 464.258 52.4615 464.258 44.76C464.258 37.3352 458.454 31.2657 451.134 30.8413L450.315 30.8185H426.583V58.7027ZM548.158 19.5663C549.596 19.5678 550.979 20.1199 552.023 21.1092C553.067 22.0984 553.692 23.4498 553.77 24.8856C553.849 26.3215 553.374 27.7329 552.445 28.8299C551.515 29.9269 550.2 30.6263 548.771 30.7844L548.158 30.8185H509.751L509.75 53.8105H533.482C534.922 53.8088 536.308 54.3593 537.354 55.3488C538.401 56.3382 539.028 57.6913 539.106 59.1292C539.185 60.5672 538.709 61.9806 537.777 63.0783C536.845 64.1761 535.527 64.8745 534.096 65.0299L533.482 65.0627H509.75V88.056H548.158C549.544 88.0561 550.882 88.5678 551.914 89.493C552.946 90.4181 553.6 91.6917 553.752 93.0695L553.784 93.6821C553.784 95.0682 553.273 96.4055 552.348 97.4376C551.422 98.4698 550.149 99.1242 548.771 99.2754L548.158 99.3082H504.13C502.744 99.3081 501.406 98.7964 500.374 97.8712C499.342 96.9461 498.688 95.6726 498.536 94.2947L498.504 93.6821V25.1924C498.504 23.8065 499.015 22.4694 499.94 21.4373C500.865 20.4052 502.138 19.7507 503.516 19.5992L504.13 19.5663H548.158ZM581.67 25.1924C581.67 20.0476 587.928 17.6918 591.339 21.2766L591.718 21.7162L635.478 77.4114L635.483 25.1924C635.483 23.8063 635.995 22.4691 636.92 21.4369C637.845 20.4048 639.119 19.7504 640.497 19.5992L641.109 19.5663C642.495 19.5664 643.832 20.0779 644.864 21.0028C645.896 21.9277 646.551 23.2009 646.702 24.5785L646.735 25.1924V93.6821C646.735 98.8269 640.478 101.181 637.066 97.5979L636.686 97.1583L592.917 41.4531L592.922 93.6821C592.922 95.0682 592.41 96.4055 591.485 97.4376C590.56 98.4698 589.287 99.1242 587.909 99.2754L587.296 99.3082C585.91 99.3081 584.573 98.7964 583.541 97.8712C582.508 96.9461 581.854 95.6726 581.703 94.2947L581.67 93.6821V25.1924Z" fill="black"/>
</svg>
