<?xml version="1.0" encoding="utf-8"?>
<!-- Generator: Adobe Illustrator 22.1.0, SVG Export Plug-In . SVG Version: 6.00 Build 0)  -->
<svg version="1.1" xmlns="http://www.w3.org/2000/svg" xmlns:xlink="http://www.w3.org/1999/xlink" x="0px" y="0px"
	 viewBox="0 0 697.1 252.1" style="enable-background:new 0 0 697.1 252.1;" xml:space="preserve">
<style type="text/css">
	.st0{fill:var(--gray-400);}
	.st1{fill:#FEFEFE;}
	.st2{fill:#EFC30F;}
	.st3{fill:#F0C30F;}
</style>
<g id="Layer_8_copy_xA0_Image">
	<g>
		<path class="st0" d="M19.3,162.1c0.1,1.5,0.2,2.9,0.4,4.4c0.2,1.4,0.5,2.8,0.7,4.3c0.1,1.1,0.4,2.3,0.6,3.3
			c0.4,1.5,0.7,2.9,1.2,4.4c0.6,1.7,1,3.4,1.7,5.1c0.4,0.9,0.8,1.9,1.2,2.8c0.6,1.4,1.3,2.8,2,4.1c0.7,1.4,1.5,2.9,2.3,4.3
			c0.9,1.5,1.9,3,2.9,4.5c1,1.5,2.1,2.9,3.3,4.3c0.8,1,1.7,2,2.6,2.9c1.1,1.2,2.2,2.3,3.3,3.4c1.4,1.3,2.7,2.6,4.2,3.8
			c2.1,1.7,4.3,3.3,6.6,4.7c2,1.3,4.1,2.5,6.3,3.6c1.7,0.8,3.4,1.6,5,2.3c2.9,1.3,5.9,2.1,8.8,3c0.9,0.3,1.9,0.5,2.9,0.7
			c1.2,0.3,2.4,0.5,3.6,0.7c2,0.3,3.9,0.5,5.9,0.7c1.7,0.2,3.4,0.2,5.1,0.3c1.6,0.1,3.1-0.1,4.7-0.1c1.2,0,2.4-0.2,3.6-0.3
			c0.7-0.1,1.5-0.2,2.2-0.3c1.3-0.1,2.6-0.4,4-0.6c1.1-0.2,2.2-0.5,3.3-0.8c1.2-0.3,2.4-0.6,3.7-1c1.1-0.3,2.3-0.7,3.4-1.1
			c0.8-0.3,1.6-0.5,2.4-0.9c1.1-0.5,2.3-0.9,3.5-1.5c0.7-0.4,1.5-0.7,2.2-1.1c1.2-0.6,2.4-1.2,3.6-1.9c0.8-0.5,1.7-1,2.5-1.5
			c0.8-0.5,1.7-1,2.4-1.6c0.8-0.6,1.6-1,2.3-1.6c1-0.8,2.1-1.6,3.1-2.5c0.8-0.8,1.7-1.5,2.5-2.3c1.2-1.1,2.3-2.3,3.4-3.4
			c1.3-1.2,2.4-2.5,3.5-3.9c1.2-1.5,2.4-3,3.5-4.6c0.7-1.1,1.5-2.2,2.2-3.3c0.5-0.7,0.9-1.5,1.3-2.3c0.8-1.6,1.7-3.1,2.5-4.8
			c0.2-0.4,0.5-0.8,0.5-1.3c0-0.1,0.1-0.2,0.2-0.2c0.1,0,0.2,0,0.2,0.2c0,0.1,0,0.3-0.1,0.4c-0.5,1.4-0.9,2.8-1.4,4.2
			c-0.5,1.2-0.9,2.4-1.5,3.6c-0.3,0.8-0.7,1.6-1,2.3c-0.4,0.9-0.9,1.8-1.3,2.6c-0.6,1.2-1.3,2.4-2,3.6c-1,1.6-1.9,3.2-3,4.7
			c-1.1,1.6-2.2,3.1-3.4,4.6c-1,1.3-2.1,2.5-3.2,3.8c-0.8,0.9-1.6,1.8-2.5,2.6c-0.7,0.7-1.5,1.4-2.2,2.1c-0.7,0.6-1.4,1.2-2.1,1.8
			c-0.9,0.8-1.8,1.5-2.8,2.3c-1.2,1-2.6,1.9-3.9,2.8c-1.4,1-2.9,1.8-4.3,2.7c-1.9,1.1-3.8,2.2-5.8,3.1c-1.1,0.5-2.2,1-3.3,1.5
			c-0.9,0.4-1.8,0.7-2.8,1.1c-0.8,0.3-1.6,0.6-2.4,0.9c-0.8,0.3-1.6,0.5-2.4,0.8c-0.7,0.2-1.5,0.5-2.2,0.6c-1.1,0.2-2.1,0.6-3.1,0.8
			c-0.8,0.2-1.5,0.3-2.3,0.5c-0.8,0.2-1.6,0.3-2.5,0.5c-1,0.1-2,0.3-2.9,0.4c-1.6,0.2-3.2,0.4-4.8,0.4c-0.1,0-0.3,0-0.3,0.2
			c-0.1,0-0.3,0-0.4,0c-0.2-0.1-0.4-0.1-0.5,0c-2.1,0-4.2,0-6.2,0c-0.8-0.1-1.7-0.1-2.5-0.1c-2.4-0.1-4.8-0.5-7.2-0.8
			c-2.6-0.4-5.2-1-7.7-1.7c-2.3-0.7-4.6-1.4-6.8-2.2c-1.7-0.6-3.4-1.4-5-2.1c-1.7-0.7-3.3-1.6-4.9-2.5c-2.9-1.6-5.8-3.4-8.5-5.4
			c-2.7-2-5.2-4.1-7.6-6.4c-2-1.9-3.9-3.9-5.7-6c-2.2-2.7-4.3-5.4-6.2-8.4c-1-1.6-1.9-3.2-2.8-4.8c-1.2-2.1-2.2-4.3-3.1-6.4
			c-1.3-3.1-2.4-6.2-3.3-9.4c-0.6-2.2-1.1-4.5-1.5-6.8c-0.5-2.5-0.8-5-1-7.6c-0.1-0.9-0.1-1.8-0.1-2.7c0-0.2,0.1-0.4-0.1-0.5
			c0-2,0-3.9,0-5.9c0.1-1,0.1-2,0.1-3c0.1-2.1,0.4-4.2,0.7-6.3c0.2-1.4,0.4-2.7,0.7-4.1c0.3-1.4,0.7-2.7,1-4.1
			c0.5-1.8,1-3.6,1.7-5.4c0.9-2.4,1.8-4.8,2.9-7.1c1-2.1,2.1-4.2,3.2-6.2c1.5-2.5,3.1-5,4.9-7.4c1.4-1.8,2.8-3.6,4.3-5.2
			c1.2-1.3,2.4-2.6,3.7-3.9c1.5-1.5,3.1-2.9,4.7-4.2c1.5-1.3,3.1-2.4,4.8-3.6c1.5-1.1,3-2,4.6-3c1-0.6,2.1-1.2,3.1-1.7
			c2-1.1,4.1-2,6.2-3c3.2-1.4,6.6-2.5,9.9-3.5c2-0.6,4.1-1,6.2-1.5c0.3-0.1,0.5-0.1,0.8,0c0.2,0,0.3,0.1,0.4,0.4
			c0,0.2-0.1,0.3-0.3,0.4c-0.4,0.2-0.9,0.3-1.4,0.4c-2.5,0.9-5.1,1.9-7.5,3c-2.6,1.2-5,2.5-7.5,4c-1.4,0.8-2.7,1.7-4,2.7
			c-2.1,1.5-4.1,3.1-6.1,4.8c-2.5,2.2-4.8,4.6-6.9,7.1c-1.5,1.8-2.9,3.6-4.2,5.5c-1.1,1.6-2.1,3.3-3.1,4.9c-1.3,2.2-2.4,4.5-3.5,6.8
			c-0.5,1-0.9,2.1-1.3,3.2c-0.8,1.9-1.3,3.9-2,5.9c-0.7,2.1-1.1,4.3-1.6,6.5c-0.3,1.7-0.6,3.3-0.8,5c-0.4,3.4-0.6,6.8-0.5,10.2
			c0,0.5,0.1,0.9,0.1,1.4C19.5,161.6,19.5,161.9,19.3,162.1z"/>
		<path class="st1" d="M86.2,242c0.2-0.2,0.4-0.2,0.5,0C86.6,242,86.4,242,86.2,242z"/>
		<path class="st2" d="M137.4,81.6c0.5-0.2,0.6-0.8,0.9-1.1c1.1-1.4,2.1-2.9,3.2-4.4c1-1.4,1.9-2.7,2.9-4.1c0.9-1.3,1.9-2.6,2.8-3.9
			c0.8-1.1,1.6-2.2,2.4-3.4c0.8-1.1,1.6-2.3,2.4-3.4c0.9-1.3,1.8-2.5,2.7-3.8c0.8-1.1,1.5-2.2,2.3-3.3c0.9-1.3,1.8-2.6,2.7-3.8
			c0.6-0.9,1.2-1.8,1.9-2.6c1-1.3,1.9-2.6,2.9-3.9c0.8-1,1.4-2.1,2.2-3.2c0.9-1.2,1.7-2.5,2.7-3.7c1.1-1.4,2-2.8,3-4.3
			c0.7-1,1.4-2,2.1-2.9c1-1.4,2-2.8,3-4.2c0.7-0.9,1.4-1.9,2-2.9c0.6-1,1.4-1.9,2.1-2.9c0.7-0.9,1.3-1.8,2-2.8
			c0.6-0.9,1.3-1.8,1.9-2.7c0.6-0.9,1.2-1.8,1.9-2.6c0.7-0.9,1.5-1.8,2.5-2.5c0.8-0.6,1.6-1.1,2.6-1.1c1.2-0.1,2.2,0.6,2.9,1.6
			c0.9,1.3,1.2,2.7,1.5,4.2c0.3,1.6,0.4,3.2,0.3,4.8c0,1.6-0.2,3.1-0.7,4.7c-0.5,1.6-1.5,3-2.2,4.5c-0.6,1.1-1.2,2.2-1.8,3.2
			c-0.6,1.1-1.2,2.3-1.8,3.4c-0.5,0.9-1,1.8-1.5,2.6c-0.8,1.5-1.7,3-2.4,4.5c-0.4,0.8-0.9,1.7-1.3,2.5c-0.6,1.1-1.2,2.2-1.8,3.3
			c-0.9,1.6-1.7,3.2-2.6,4.8c-0.7,1.3-1.3,2.6-2.1,3.8c-0.3,0.6-0.6,1.2-1,1.8c-0.8,1.4-1.6,2.8-2.3,4.3c-0.7,1.3-1.4,2.7-2.2,4
			c-0.4,0.7-0.9,1.5-1.2,2.2c-0.4,0.8-0.9,1.5-1.2,2.3c-0.4,0.8-0.9,1.6-1.3,2.3c-0.5,0.9-1,1.8-1.5,2.7c-0.7,1.3-1.4,2.6-2.1,3.9
			c-0.6,1.1-1.2,2.2-1.8,3.3c-0.4,0.8-0.8,1.5-1.2,2.2c-0.5,0.9-1,1.8-1.5,2.8c-0.6,1.1-1.2,2.2-1.7,3.2c-0.6,1.2-1.3,2.3-1.9,3.5
			c-0.8,1.5-1.6,3-2.4,4.5c-0.9,1.6-1.7,3.3-2.6,4.9c-1,1.9-2,3.7-3.1,5.6c-0.9,1.7-1.9,3.4-2.9,5.2c-0.7,1.3-1.4,2.7-2.1,3.9
			c-0.8,1.3-1.4,2.6-2.2,3.9c-0.3,0.6-0.6,1.2-0.9,1.8c-0.6,1.1-1.2,2.1-1.8,3.2c-0.4,0.7-0.8,1.5-1.2,2.2c-0.4,0.8-0.8,1.6-1.3,2.4
			c-0.4,0.7-0.8,1.5-1.2,2.2c-0.4,0.8-0.8,1.6-1.3,2.4c-0.5,0.9-1,1.9-1.6,2.8c-0.6,1.1-1.1,2.1-1.7,3.2c-0.6,1.1-1.3,2.3-1.9,3.4
			c-0.5,0.9-1,1.9-1.6,2.8c-0.5,0.9-0.9,1.8-1.4,2.7c-0.8,1.5-1.6,2.9-2.4,4.4c-0.7,1.3-1.4,2.7-2.2,4c-0.5,0.9-1,1.8-1.5,2.7
			c-0.7,1.3-1.4,2.6-2.1,3.9c-0.5,1-1.1,1.9-1.6,2.9c-0.3,0.5-0.6,1.1-0.9,1.6c-0.6,1.1-1.2,2.2-1.7,3.2c-0.6,1.1-1.2,2.1-1.8,3.2
			c-0.4,0.8-0.8,1.6-1.3,2.3c-0.4,0.8-0.8,1.5-1.3,2.3c-0.4,0.8-0.9,1.6-1.3,2.4c-0.5,1-1.1,1.9-1.6,2.9c-0.3,0.5-0.6,1.1-0.9,1.6
			c-0.5,0.9-1.1,1.9-1.6,2.8c-0.4,0.7-0.8,1.5-1.2,2.2c-0.4,0.6-0.7,1.2-1,1.8c-0.4,0.8-0.9,1.6-1.3,2.4c-0.5,1-1.1,2-1.6,3
			c-0.4,0.7-0.8,1.4-1.2,2.1c-0.4,0.7-0.8,1.5-1.2,2.2c-0.6,1.1-1.2,2.3-1.8,3.4c-0.4,0.8-0.9,1.5-1.3,2.3c-0.7,1.3-1.4,2.6-2.4,3.7
			c-0.9,1.1-2,2-3.2,2.7c-1.2,0.7-2.4,1.1-3.8,1c-1.7-0.1-3-0.8-4.2-2c-1.5-1.5-2.5-3.3-3.3-5.3c-0.6-1.5-1.1-3-1.6-4.5
			c-0.8-2-1.4-4-2.2-6c-0.4-1-0.8-2-1.1-3.1c-0.4-1.3-1-2.5-1.4-3.8c-0.3-1-0.7-2-1.1-3c-0.3-0.8-0.6-1.7-0.9-2.5
			c-0.5-1.3-0.9-2.5-1.4-3.8c-0.4-1.1-0.8-2.1-1.2-3.2c-0.4-1-0.7-2-1.1-3c-0.5-1.3-0.9-2.6-1.4-3.9c-0.2-0.5-0.4-1.1-0.5-1.6
			c-0.5-1.3-1-2.7-1.5-4c-0.5-1.5-1-3-1.6-4.4c-0.7-1.9-1.4-3.9-2.1-5.8c-0.5-1.5-1-3-1.6-4.5c-0.7-1.9-1.3-3.8-2.1-5.6
			c-0.6-1.6-1.1-3.2-1.7-4.7c-0.7-1.8-1.3-3.6-2-5.4c-0.7-1.8-1.3-3.7-2-5.6c-0.4-0.4-0.5-1-0.7-1.5c-0.8-2.2-1.5-4.3-2.4-6.5
			c-0.6-1.5-0.8-3-0.3-4.6c0.5-1.5,1.7-2.3,3.3-2.1c1.6,0.1,3,0.8,4.3,1.7c2,1.4,3.9,2.9,5.9,4.3c3.6,2.6,7.2,5.3,10.8,7.9
			c3.5,2.5,6.9,5.1,10.3,7.5c1.7,1.2,3.3,2.6,5.3,3.5c1.7,0.8,3.4,1.2,5.2,0.8c0.7-0.2,1.4-0.5,2.1-0.9c1.4-0.8,2.6-1.9,3.6-3.2
			c1.4-1.7,2.5-3.5,3.8-5.2c1.7-2.2,3.2-4.6,4.8-6.8c1.5-2.1,2.9-4.2,4.4-6.2c1.7-2.4,3.4-4.8,5.1-7.2c1-1.4,2-2.8,3-4.2
			c1.2-1.6,2.3-3.3,3.5-4.9c2-2.8,4-5.7,6-8.5c1.7-2.4,3.4-4.8,5-7.1c1.8-2.5,3.5-4.9,5.3-7.4C137.1,82,137.2,81.8,137.4,81.6z"/>
		<path class="st0" d="M135.3,79.6c-0.5,0.7-1,1.4-1.5,2.2c-0.4,0.6-0.9,1.2-1.3,1.8c-0.3,0.4-0.5,0.4-0.9,0.1
			c-1.6-1.4-3.3-2.9-5-4.2c-1.1-0.8-2.2-1.7-3.3-2.5c-1.4-1-2.9-1.9-4.3-2.7c-1.3-0.8-2.6-1.5-4-2.2c-0.9-0.4-1.8-0.9-2.7-1.3
			c-1.4-0.6-2.8-1.2-4.2-1.8c-1-0.4-2-0.7-3-1c-1-0.3-2-0.7-3.1-1c-1.4-0.3-2.8-0.8-4.2-1c-1.4-0.2-2.8-0.5-4.2-0.7
			c-0.9-0.1-1.9-0.3-2.8-0.4c-1.2-0.2-2.4-0.2-3.6-0.3c-1.5-0.1-3-0.1-4.5-0.1c-1.4,0-2.8,0.1-4.2,0.2c-1.2,0.1-2.4,0.2-3.7,0.3
			c-0.9,0.1-1.7,0.3-2.6,0.4c-0.9,0.1-1.8,0.3-2.7,0.4c-0.8,0.1-1.6,0.3-2.4,0.6C66,66.8,65,67,64,67.3c-0.9,0.3-1.8,0.6-2.7,0.9
			c-1,0.3-2,0.7-3.1,1.1c-0.6,0.2-1.2,0.5-1.7,0.7c-0.9,0.3-1.7,0.7-2.6,1.1c-1.1,0.5-2.2,1-3.3,1.6c-0.7,0.4-1.5,0.8-2.2,1.2
			c-0.8,0.5-1.7,1-2.5,1.6c-1.1,0.7-2.2,1.5-3.3,2.1c-0.4,0.2-0.9,0.6-1.2,0.9c-1,0.9-2.2,1.6-3.2,2.6c-0.8,0.7-1.7,1.4-2.5,2.2
			c-0.5,0.5-1.1,1-1.6,1.5c-0.8,0.6-1.4,1.3-2.1,2.1c-0.8,0.9-1.7,1.7-2.3,2.7c0,0-0.2,0.3-0.5,0.1c-0.2-0.2,0-0.3,0-0.4
			c0.4-0.7,0.8-1.4,1.2-2c0.4-0.6,0.8-1.3,1.2-1.9c0.4-0.6,0.9-1.2,1.3-1.8c0.7-0.9,1.3-1.7,2-2.6c0.9-1.1,1.8-2.2,2.7-3.3
			c1.1-1.3,2.3-2.5,3.6-3.7c1.1-1.1,2.3-2.1,3.4-3.1c1.1-1,2.4-2,3.5-2.9c0.7-0.6,1.4-1,2.2-1.6c0.8-0.5,1.6-1.1,2.4-1.6
			c1-0.7,2-1.2,3-1.9c0.9-0.5,1.7-1,2.6-1.5c0.7-0.4,1.4-0.8,2.2-1.1c0.6-0.2,1.1-0.6,1.7-0.8c0.6-0.3,1.1-0.5,1.7-0.7
			c0.6-0.3,1.3-0.6,1.9-0.8c1.3-0.5,2.6-1,3.9-1.4c1.2-0.4,2.4-0.7,3.6-1.1c1-0.3,2.2-0.5,3.2-0.8c0.8-0.2,1.6-0.3,2.3-0.5
			c0.4-0.1,0.8-0.1,1.3-0.2c1-0.2,2-0.3,3-0.4c1.3-0.1,2.6-0.3,3.9-0.4c0.9-0.1,1.8-0.2,2.8-0.2c1.9-0.1,3.9-0.1,5.8,0
			c1.4,0.1,2.8,0.2,4.3,0.3c1.2,0.1,2.4,0.3,3.6,0.5c1.3,0.2,2.5,0.4,3.8,0.6c1.1,0.2,2.1,0.5,3.1,0.6c1.2,0.4,2.4,0.7,3.6,1.1
			c1.7,0.5,3.5,1,5.1,1.7c1.2,0.5,2.5,0.9,3.7,1.5c1.7,0.8,3.4,1.6,5,2.5c1.4,0.8,2.9,1.6,4.3,2.5c2,1.3,4,2.7,6,4.2
			c1.1,0.8,2,1.7,3.1,2.5c0.4,0.3,0.3,0.6,0,0.9c-0.5,0.5-0.9,1.2-1.3,1.7c-1.1,1.6-2.3,3.2-3.4,4.8C136,78.5,135.7,79,135.3,79.6z"
			/>
		<path class="st0" d="M166.2,116.9c0.2,1.2,0.2,2.4,0.4,3.6c0.1,0.8,0.1,1.6,0.1,2.4c0,1.3,0.1,2.5,0.1,3.8c0,1.4-0.1,2.9-0.2,4.3
			c-0.1,1.4-0.2,2.9-0.4,4.3c-0.1,0.8-0.3,1.6-0.4,2.4c-0.2,1.2-0.4,2.4-0.6,3.6c-0.2,1.1-0.5,2.3-0.8,3.4c-0.6,2.3-1.4,4.5-2.1,6.8
			c-0.3,0.9-0.7,1.9-1.1,2.8c-0.2,0.5-0.5,1.1-0.6,1.6c-0.3,0.8-0.6,1.5-1,2.2c-0.4,0.8-0.8,1.7-1.2,2.4c-0.4,0.8-0.9,1.6-1.3,2.3
			c-0.7,1.2-1.4,2.4-2.1,3.6c-0.5,0.9-1.1,1.8-1.8,2.6c-0.5,0.6-0.9,1.2-1.3,1.8c-1,1.2-1.9,2.5-3,3.7c-0.7,0.8-1.4,1.6-2.1,2.3
			c-1.1,1.2-2.4,2.4-3.6,3.5c-0.8,0.7-1.5,1.4-2.3,2.1c-0.8,0.7-1.6,1.4-2.5,2.1c-0.9,0.7-1.8,1.4-2.8,2.1c-1.2,0.8-2.5,1.6-3.7,2.4
			c-0.8,0.5-1.6,0.9-2.4,1.5c-0.6,0.4-1.4,0.7-2.1,1.1c-0.6,0.4-1.3,0.6-1.9,1c-0.2,0.1-0.4,0.1-0.5,0c-0.1-0.1-0.1-0.4,0.1-0.5
			c0.6-0.4,1.2-1,1.9-1.4c0.5-0.3,0.8-0.7,1.3-1.1c0.7-0.5,1.3-1.1,1.9-1.7c0.5-0.5,1-1,1.6-1.4c0.7-0.6,1.3-1.3,1.9-1.9
			c0.6-0.6,1.2-1.3,1.8-1.9c0.7-0.7,1.3-1.5,2-2.3c0.4-0.5,0.8-1.1,1.2-1.5c0.5-0.6,0.9-1.2,1.4-1.7c0.7-0.8,1.3-1.8,1.9-2.7
			c0.7-1,1.3-2,1.9-3c0.5-0.8,1-1.7,1.5-2.6c0.4-0.6,0.7-1.3,1-2c0.8-1.3,1.4-2.8,2-4.2c0.3-0.8,0.6-1.6,0.9-2.4
			c0.4-1,0.7-2.1,1.1-3.2c0.4-1.1,0.8-2.2,1.1-3.4c0.3-0.9,0.5-1.9,0.7-2.8c0.3-1.4,0.6-2.8,0.8-4.2c0.1-0.9,0.3-1.8,0.4-2.7
			c0.2-1.1,0.3-2.3,0.4-3.5c0.2-2.3,0.3-4.7,0.2-7c0-1.2-0.1-2.4-0.2-3.6c-0.1-1.1-0.2-2.2-0.3-3.3c-0.1-1.4-0.4-2.8-0.7-4.2
			c-0.3-1.4-0.6-2.8-0.9-4.3c-0.4-1.4-0.7-2.9-1.2-4.3c-0.3-0.8,0.1-1.4,0.4-2c0.3-0.7,0.7-1.3,1-1.9c0.4-0.7,0.7-1.5,1.2-2.1
			c0.2-0.3,0.3-0.6,0.5-0.9c0.7-1.2,1.3-2.3,1.9-3.5c0.5-0.9,1-1.8,1.4-2.6c0.8-1.5,1.7-3.1,2.5-4.6c0.1-0.1,0.2-0.2,0.3-0.2
			c0.2,0,0.4,0.2,0.5,0.4c0.2,0.4,0.4,0.8,0.6,1.2c0.5,1.2,1.1,2.5,1.5,3.8c0.5,1.6,1.1,3.3,1.6,5c0.4,1.6,0.8,3.2,1.2,4.8
			c0.3,1.3,0.5,2.7,0.7,4C166,115.8,166,116.4,166.2,116.9z"/>
		<path class="st3" d="M86.4,136c-1.3-0.5-2.2-1.5-3.3-2.3c-1.4-0.9-2.7-1.9-4-2.9c-1.7-1.2-3.4-2.4-5-3.7c-0.7-0.6-1.3-1.3-1.3-2.3
			c0-0.4,0.2-0.7,0.3-1.1c0.9-1.2,2.8-1.3,4-0.6c0.9,0.5,1.9,0.6,2.8,0.9c2,0.6,4,1.3,6,1.9c1.3,0.4,2.5,0,3.4-0.9
			c1.4-1.4,2.8-2.8,4.2-4.2c1.4-1.5,2.9-2.9,4.3-4.4c1.1-1.1,2.2-2.2,3.4-3.4c1.1-1.1,2.3-2.3,3.4-3.4c0.5-0.6,1.2-0.9,1.8-1.3
			c0.7-0.4,1.6,0.2,1.6,1.1c0.1,1.2-0.4,2.1-1,3.1c-0.7,1.1-1.5,2.1-2.3,3.2c-1.2,1.6-2.4,3.3-3.5,4.9c-1.2,1.7-2.4,3.5-3.7,5.2
			c-0.9,1.3-1.8,2.6-2.8,3.9c-1.2,1.7-2.3,3.4-3.5,5c-0.8,1-1.9,1.6-3.2,1.6C87.5,136.4,86.9,136.4,86.4,136z"/>
	</g>
</g>
<g id="VENUS_LAB">
	<g>
		<path class="st0" d="M218.7,129l18.8,51.3l18.8-51.3h5.7l-20.1,55.5h-9L212.5,129H218.7z"/>
		<path class="st0" d="M309.1,154.7v3.3h-25.3v23.2h30.4v3.3h-36.5V129h36.5v3.3h-30.4v22.4H309.1z"/>
		<path class="st0" d="M336.3,184.6h-5.6V129h7.9l27.8,46.9V129h5.6v55.5h-6.7l-29-49.5V184.6z"/>
		<path class="st0" d="M394.9,171.2c0,6,3.7,10.6,13.9,10.6s13.9-4.6,13.9-10.6V129h5.7v42c0,7.9-5.6,14-19.7,14
			c-14.1,0-19.8-6.1-19.8-14v-42h6.1V171.2z"/>
		<path class="st0" d="M484.4,142.4v1.2h-5.8v-1.4c0-5.9-3.7-10.3-13.8-10.3c-10,0-13.8,4.4-13.8,10.2c0,13.5,33.5,13.7,33.5,29
			c0,8-5.8,13.9-20,13.9c-14.1,0-20-5.9-20-13.9v-2.9h5.8v3.1c0,6,3.8,10.2,14,10.2s14-4.3,14-10.2c0-13.3-33.5-13.6-33.5-29
			c0-8.3,6.1-13.7,19.7-13.8C478.7,128.6,484.4,134.4,484.4,142.4z"/>
		<path class="st0" d="M528,184.6V129h6.1v52.2h29.1v3.3H528z"/>
		<path class="st0" d="M587.8,172.3l-4.6,12.3h-5.6l20.2-55.6h8.9l20.6,55.6h-6.1l-4.6-12.3H587.8z M588.7,169.1h27l-13.6-35.9
			L588.7,169.1z"/>
		<path class="st0" d="M662.6,129c13.9,0,18.9,4.1,18.9,11.8v3.2c0,6-2.8,9.8-12.2,10.9c10,1.2,13.9,5.6,13.9,11.9v4.8
			c0,8-6.1,12.9-20.2,12.9h-19.8V129H662.6z M659.6,153.6c10.8,0,15.9-1.7,15.9-8.8v-3.6c0-5.8-3-8.8-13-8.8h-13.2v21.2H659.6z
			 M663,181.2c10.2,0,14.1-3.4,14.1-9.6v-5c0-7.2-5.4-9.8-16.4-9.8h-11.5v24.4H663z"/>
	</g>
</g>
</svg>
